<svg width="1040" height="700" viewBox="70 50 1000 640" fill="none" xmlns="http://www.w3.org/2000/svg">
  <g transform="translate(30 30)">
    <path
      d="M99 285C94 234 124 194 184 166C247 137 342 122 412 114C425 90 457 75 477 104C495 86 534 93 547 124C557 148 548 171 526 185C589 203 672 186 777 190C860 193 936 220 973 281C1012 347 998 433 961 496C936 538 930 578 916 611C908 630 875 631 842 626C824 623 823 608 837 596C852 583 861 566 854 545C826 542 795 545 769 548C769 571 764 592 751 606C734 624 688 623 669 615C657 610 659 595 673 584C687 573 695 560 693 539C620 548 518 547 452 536C452 562 449 589 437 604C423 621 376 620 361 611C351 605 357 590 372 580C386 570 390 551 384 524C373 520 361 516 350 512C342 543 334 582 316 602C301 619 253 615 244 605C236 596 246 584 261 575C288 559 296 533 287 492C279 455 249 420 224 367C173 364 113 349 101 309C99 302 99 293 99 285Z"
      fill="#B78A54"
      stroke="#2C2118"
      stroke-width="10"
      stroke-linejoin="round"
      stroke-linecap="round"
    />
    <path
      d="M106 283C109 236 141 201 207 169C180 205 174 270 176 330C134 321 108 306 106 283Z"
      fill="#8D6B43"
      opacity="0.32"
    />
    <path
      d="M411 114C428 82 465 72 477 104C457 105 435 111 418 120L411 114Z"
      fill="#B78A54"
      stroke="#2C2118"
      stroke-width="10"
      stroke-linejoin="round"
      stroke-linecap="round"
    />
    <path
      d="M474 111C493 77 540 95 546 129C551 157 532 177 502 180C498 154 489 132 474 111Z"
      fill="#A57A49"
      stroke="#2C2118"
      stroke-width="10"
      stroke-linejoin="round"
      stroke-linecap="round"
    />
    <path d="M488 145C497 126 510 115 526 112" stroke="#60442A" stroke-width="8" stroke-linecap="round"/>
    <path d="M505 166C514 146 526 137 539 136" stroke="#60442A" stroke-width="8" stroke-linecap="round"/>
    <ellipse cx="348" cy="215" rx="20" ry="12" fill="#17130F"/>
    <ellipse cx="128" cy="238" rx="12" ry="8" transform="rotate(-43 128 238)" fill="#17130F"/>
    <path d="M105 312C113 318 122 321 133 321" stroke="#2C2118" stroke-width="8" stroke-linecap="round"/>
    <path d="M287 492C307 518 305 557 283 575" stroke="#2C2118" stroke-width="8" stroke-linecap="round"/>
    <path d="M384 524C389 492 393 468 401 450" stroke="#2C2118" stroke-width="8" stroke-linecap="round"/>
    <path d="M351 512C376 527 408 534 452 536" stroke="#2C2118" stroke-width="8" stroke-linecap="round"/>
    <path
      d="M290 566C311 573 337 573 361 566C357 588 345 602 320 608C294 615 254 612 245 604C241 596 250 586 263 578C272 573 282 570 290 566Z"
      fill="#80613B"
      opacity="0.55"
    />
    <path
      d="M385 565C402 571 421 570 440 564C438 583 434 598 425 606C411 618 376 616 363 609C355 605 361 593 374 583C380 578 384 571 385 565Z"
      fill="#80613B"
      opacity="0.55"
    />
    <path
      d="M694 541C719 543 746 541 770 548C769 570 762 590 748 604C731 621 689 620 672 613C664 609 668 596 681 586C691 578 697 563 694 541Z"
      fill="#80613B"
      opacity="0.55"
    />
    <path
      d="M854 545C872 562 868 582 846 600C835 610 841 623 864 626C891 630 910 626 916 610C925 587 932 559 945 526C916 539 884 545 854 545Z"
      fill="#80613B"
      opacity="0.55"
    />
    <path
      d="M180 355C207 360 220 364 224 367"
      stroke="#2C2118"
      stroke-width="8"
      stroke-linecap="round"
    />
  </g>
</svg>
